<?xml version="1.0" encoding="UTF-8"?>
<svg width="32" height="32" viewBox="0 0 32 32" fill="none" xmlns="http://www.w3.org/2000/svg">
  <path d="M16 2C8.268 2 2 8.268 2 16C2 23.732 8.268 30 16 30C23.732 30 30 23.732 30 16C30 8.268 23.732 2 16 2ZM16 26C10.486 26 6 21.514 6 16C6 10.486 10.486 6 16 6C21.514 6 26 10.486 26 16C26 21.514 21.514 26 16 26Z" fill="#2EE4D4"/>
  <path d="M20.5 16C20.5 18.4853 18.4853 20.5 16 20.5C13.5147 20.5 11.5 18.4853 11.5 16C11.5 13.5147 13.5147 11.5 16 11.5C18.4853 11.5 20.5 13.5147 20.5 16Z" fill="#2EE4D4"/>
  <path d="M19.5 19.5L24 24" stroke="#2EE4D4" stroke-width="3" stroke-linecap="round"/>
</svg> 